<svg width="33" height="31" viewBox="0 0 33 31" fill="none" xmlns="http://www.w3.org/2000/svg">
<path d="M30.0222 23.6645C30.0494 23.9829 29.8009 24.2565 29.4846 24.2565H3.46924C3.15373 24.2565 2.90553 23.9842 2.93156 23.6664L4.7959 0.912147C4.8191 0.629495 5.05287 0.411987 5.33372 0.411987H27.5426C27.8226 0.411987 28.0561 0.628405 28.0801 0.910239L30.0222 23.6645Z" fill="#1DCF65"/>
<path d="M32.0989 29.6011C32.1314 29.9983 31.8212 30.3387 31.4269 30.3387H1.5945C1.20103 30.3387 0.891044 29.9999 0.922204 29.6035L3.06388 2.34693C3.0918 1.99246 3.38438 1.71948 3.73618 1.71948H29.1959C29.5469 1.71948 29.8392 1.99137 29.8681 2.34475L32.0989 29.6011Z" fill="url(#paint0_linear_1_282)"/>
<path d="M15.9232 21.6953C12.0402 21.6953 8.88135 17.8631 8.88135 13.1528C8.88135 12.9075 9.07815 12.7085 9.32109 12.7085C9.56403 12.7085 9.76084 12.9073 9.76084 13.1528C9.76084 17.3732 12.5253 20.8067 15.9234 20.8067C19.3214 20.8067 22.0859 17.3732 22.0859 13.1528C22.0859 12.9075 22.2827 12.7085 22.5257 12.7085C22.7686 12.7085 22.9654 12.9073 22.9654 13.1528C22.9653 17.8631 19.8062 21.6953 15.9232 21.6953Z" fill="white"/>
<path d="M20.258 13.0336C20.1455 13.0336 20.033 12.9903 19.947 12.9034C19.7753 12.73 19.7753 12.4487 19.947 12.2752L22.2259 9.9728C22.3083 9.88953 22.4201 9.84265 22.5368 9.84265C22.6535 9.84265 22.7653 9.8894 22.8477 9.9728L25.1043 12.2528C25.2761 12.4263 25.2761 12.7076 25.1043 12.8811C24.9326 13.0544 24.6542 13.0546 24.4825 12.8811L22.5367 10.9153L20.5689 12.9034C20.483 12.9903 20.3705 13.0336 20.258 13.0336Z" fill="white"/>
<defs>
<linearGradient id="paint0_linear_1_282" x1="25.8734" y1="26.3334" x2="7.51337" y2="4.90055" gradientUnits="userSpaceOnUse">
<stop stop-color="#52D67A"/>
<stop offset="1" stop-color="#5AEE87"/>
</linearGradient>
</defs>
</svg>
